<svg width="154" height="36" viewBox="0 0 154 36" fill="none" xmlns="http://www.w3.org/2000/svg">
<path d="M10.08 35.17L0 0.950012H6.77L13.14 23.55L19.5 0.950012H24.49L30.93 23.55L37.3 0.950012H44.05L33.94 35.17H28.42L21.98 12.8L15.49 35.17H10.07H10.08Z" fill="white"/>
<path d="M46.01 7.20001V0.970013H52.73V7.19001H46.01V7.20001ZM46.08 35.18V10.7H52.68V35.17H46.08V35.18Z" fill="white"/>
<path d="M66.6 35.64C64.9 35.64 63.26 35.36 61.69 34.8C60.12 34.24 58.79 33.36 57.69 32.15C56.59 30.94 55.9 29.38 55.62 27.45H61.58C61.8 28.32 62.18 29 62.73 29.51C63.28 30.02 63.89 30.37 64.59 30.59C65.29 30.81 65.95 30.91 66.58 30.91C67.91 30.91 68.97 30.7 69.79 30.28C70.6 29.86 71.01 29.22 71.01 28.35C71.01 27.69 70.77 27.16 70.29 26.76C69.81 26.37 69.02 26.07 67.91 25.86L63.6 24.96C61.44 24.5 59.7 23.73 58.38 22.63C57.06 21.53 56.4 19.98 56.38 17.96C56.36 16.49 56.75 15.18 57.53 14.01C58.31 12.84 59.47 11.92 61.01 11.24C62.55 10.56 64.43 10.22 66.66 10.22C69.67 10.22 72.08 10.88 73.89 12.21C75.7 13.54 76.62 15.41 76.65 17.82H70.88C70.71 16.87 70.24 16.14 69.47 15.63C68.7 15.12 67.74 14.86 66.57 14.86C65.4 14.86 64.41 15.07 63.63 15.5C62.86 15.93 62.47 16.57 62.47 17.44C62.47 18.09 62.79 18.6 63.42 18.97C64.05 19.34 65.03 19.66 66.35 19.93L70.33 20.83C71.7 21.16 72.82 21.62 73.68 22.19C74.54 22.77 75.21 23.39 75.68 24.07C76.15 24.75 76.48 25.43 76.66 26.12C76.84 26.81 76.93 27.43 76.93 27.98C76.93 29.61 76.5 30.99 75.63 32.13C74.76 33.27 73.55 34.15 72.01 34.75C70.47 35.35 68.66 35.65 66.61 35.65L66.6 35.64Z" fill="white"/>
<path d="M91.05 35.64C88.62 35.64 86.49 35.13 84.65 34.11C82.81 33.09 81.38 31.65 80.35 29.79C79.32 27.93 78.81 25.74 78.81 23.21C78.81 20.68 79.28 18.56 80.22 16.59C81.16 14.63 82.51 13.07 84.28 11.93C86.05 10.79 88.19 10.21 90.69 10.21C93.19 10.21 95.27 10.73 96.96 11.78C98.65 12.83 99.93 14.29 100.79 16.16C101.66 18.03 102.09 20.19 102.09 22.63V24.5H85.64C85.64 25.75 85.84 26.83 86.26 27.75C86.67 28.67 87.27 29.38 88.05 29.88C88.83 30.38 89.77 30.63 90.88 30.63C92.06 30.63 93.1 30.38 93.98 29.87C94.86 29.37 95.49 28.54 95.85 27.39H102.08C101.8 29.13 101.1 30.61 100 31.84C98.9 33.07 97.55 34.01 95.98 34.66C94.4 35.31 92.76 35.63 91.06 35.63L91.05 35.64ZM85.65 20.4H95.64C95.64 19.42 95.45 18.52 95.08 17.7C94.71 16.88 94.16 16.23 93.42 15.76C92.69 15.29 91.77 15.05 90.66 15.05C89.55 15.05 88.7 15.31 87.95 15.82C87.2 16.33 86.62 17 86.22 17.82C85.82 18.64 85.62 19.5 85.64 20.4H85.65Z" fill="white"/>
<path d="M120.05 35.25H104.91L121.39 18.15L104.91 1.04999H111.92C117.12 1.04999 122.09 3.15999 125.7 6.90999L136.54 18.15L120.06 35.25H120.05Z" fill="#31B889"/>
<path d="M139.44 15.18L153.06 1.04999H137.92L131.61 7.58999L139.44 15.18Z" fill="white"/>
<path d="M131.55 28.63L132.32 29.43C135.9 33.15 140.85 35.25 146.01 35.25H153.07L139.17 20.82L131.56 28.63H131.55Z" fill="white"/>
</svg>
