<svg width="8" height="93" viewBox="0 0 8 93" fill="none" xmlns="http://www.w3.org/2000/svg">
<path d="M3.82928 8.90996H0L4.1682 4.45498L0 0H1.773C3.08821 0 4.34524 0.549708 5.2583 1.52668L8 4.45498L3.83181 8.90996H3.82928Z" fill="#31B889"/>
<path d="M3.82928 36.6298H0L4.1682 32.1748L0 27.7198H1.773C3.08821 27.7198 4.34524 28.2695 5.2583 29.2465L8 32.1748L3.83181 36.6298H3.82928Z" fill="#31B889"/>
<path d="M3.82928 64.3496H0L4.1682 59.8946L0 55.4397H1.773C3.08821 55.4397 4.34524 55.9894 5.2583 56.9663L8 59.8946L3.83181 64.3496H3.82928Z" fill="#31B889"/>
<path d="M3.82928 92.0695H0L4.1682 87.6146L0 83.1596H1.773C3.08821 83.1596 4.34524 83.7093 5.2583 84.6863L8 87.6146L3.83181 92.0695H3.82928Z" fill="#31B889"/>
</svg>
