<svg width="161" height="15" viewBox="0 0 161 15" fill="none" xmlns="http://www.w3.org/2000/svg">
<path d="M88.2872 14.3066L86.8992 11.8906L86.6478 11.4544L85.2817 9.07206L85.0303 8.64703L84.7789 9.07206L83.4127 11.4544L83.1614 11.8906L81.7733 14.3066L81.522 14.7428H88.5277L88.2763 14.3066H88.2872ZM85.0303 9.50827L86.156 11.4544H83.9155L85.0303 9.50827ZM82.2761 14.3066L83.6641 11.8906H86.4074L87.7954 14.3066H82.2761Z" fill="#AE832D"/>
<path d="M82.604 8.02068L83.3909 6.64495L83.6423 6.21993L83.3909 5.7949L82.8772 4.90011L82.6258 4.47509L82.0903 3.54675L81.8389 3.12173L81.5876 3.54675L79.0082 8.03187L78.7569 8.46807L77.0082 11.5104H74.1665L80.1667 1.0749L80.4181 0.649874L80.1667 0.224854L79.9263 0.649874L73.6857 11.5104L73.4343 11.9466L72.0681 14.3177L71.8167 14.754H78.7241L78.9754 14.3177L82.3417 8.46807L82.5931 8.03187L82.604 8.02068ZM83.1504 6.21993L82.1122 8.02068H81.0848L82.6368 5.32514L83.1504 6.21993ZM81.8608 3.97177L82.3963 4.90011L80.6039 8.03187H79.5328L81.8608 3.97177ZM78.5055 14.3177H72.5818L73.948 11.9466H77.2814L77.5328 11.5104L79.2815 8.46807H81.8717L78.5055 14.3177Z" fill="#AE832D"/>
<path d="M98.7684 0.213654L92.6808 14.7428H93.588L99.1182 1.44399L104.463 14.7428H105.392L99.4789 0.213654H98.7684Z" fill="#132347"/>
<path d="M160.071 14.7428H161L155.087 0.224854H154.399L152.3 5.21329L150.278 0.224854H149.557L143.469 14.7428H144.387L149.907 1.444L151.852 6.28703L148.311 14.7428H149.218L152.289 7.36078L155.262 14.7428H156.18L152.737 6.27585L154.738 1.47755L160.071 14.7428Z" fill="#132347"/>
<path d="M115.578 8.85953C115.578 9.50825 115.501 10.157 115.37 10.8057C115.239 11.4432 115.009 12.0248 114.692 12.517C114.376 13.0203 113.949 13.4229 113.414 13.7361C112.878 14.0381 112.212 14.1947 111.403 14.1835C110.605 14.1835 109.949 14.0269 109.425 13.7137C108.9 13.4118 108.485 12.9979 108.168 12.5058C107.862 12.0025 107.643 11.432 107.512 10.7945C107.392 10.157 107.326 9.49707 107.326 8.81479V0.224841H106.474V8.80361C106.474 9.58654 106.539 10.3359 106.703 11.0741C106.856 11.8123 107.129 12.4722 107.512 13.0538C107.894 13.6355 108.408 14.1052 109.042 14.4519C109.676 14.8099 110.463 14.9888 111.414 14.9888C112.332 14.9888 113.108 14.8322 113.742 14.5079C114.376 14.1835 114.889 13.7361 115.283 13.1657C115.676 12.5953 115.96 11.9465 116.146 11.1972C116.321 10.4478 116.419 9.67602 116.419 8.85953L116.452 0.213654H115.611L115.556 8.84835L115.578 8.85953Z" fill="#132347"/>
<path d="M141.852 8.85953C141.852 9.50825 141.775 10.157 141.644 10.8057C141.513 11.4432 141.284 12.0137 140.967 12.517C140.65 13.0203 140.223 13.4229 139.688 13.7361C139.152 14.0381 138.398 14.1947 137.6 14.1835C136.802 14.1835 136.147 14.0269 135.622 13.7137C135.098 13.4118 134.682 12.9979 134.365 12.5058C134.059 12.0025 133.841 11.432 133.709 10.7945C133.589 10.157 133.524 9.49707 133.524 8.81479L133.567 0.236023H132.715L132.671 8.81479C132.671 9.59773 132.748 10.3471 132.901 11.0853C133.054 11.8235 133.327 12.4834 133.709 13.065C134.092 13.6466 134.606 14.1164 135.24 14.4631C135.873 14.8099 136.66 15 137.611 15C138.529 15 139.382 14.8434 140.027 14.5191C140.661 14.1947 141.174 13.7473 141.568 13.1769C141.961 12.6064 142.245 11.9577 142.431 11.2083C142.606 10.459 142.704 9.68721 142.704 8.87072L142.748 0.236023H141.896L141.852 8.87072V8.85953Z" fill="#132347"/>
<path d="M128.234 9.35166C127.884 8.93783 127.458 8.60228 126.977 8.33385C128.638 7.68512 129.447 5.62712 129.458 4.2402C129.458 2.96512 128.835 0.258393 125.25 0.236023H119.163L119.184 14.7428H119.96L119.928 8.60228L125.185 8.63584C125.655 8.63584 126.103 8.74768 126.507 8.96019C126.922 9.1727 127.283 9.4747 127.589 9.82143C127.906 10.1793 128.146 10.5932 128.332 11.0629C128.518 11.5215 128.606 12.0137 128.595 12.517V14.7428H129.381V12.517C129.403 11.9577 129.294 11.3873 129.086 10.8392C128.879 10.2912 128.595 9.78787 128.223 9.35166M125.316 7.87527H125.196L119.917 7.84171L119.949 0.974222L125.206 1.00778C127.666 1.01896 128.649 2.49536 128.638 4.2402C128.627 6.62257 126.857 7.89763 125.316 7.88645V7.87527Z" fill="#132347"/>
<path d="M67.9587 6.89099H0.415497V7.49497H67.9587V6.89099Z" fill="#122447"/>
</svg>
