<svg width="167" height="39" viewBox="0 0 167 39" fill="none" xmlns="http://www.w3.org/2000/svg">
<path d="M131.021 38.1403H114.517L132.474 19.0701L114.517 0H122.157C127.818 0 133.239 2.36 137.163 6.53194L148.978 19.0701L131.021 38.1403Z" fill="#31B889"/>
<path d="M152.147 15.7706L167 0H150.497L143.622 7.3037L152.147 15.7706Z" fill="#132347"/>
<path d="M143.546 30.7695L144.376 31.6531C148.278 35.8026 153.666 38.1403 159.295 38.1403H166.989L151.841 22.0565L143.546 30.7695Z" fill="#132347"/>
<path d="M11.0386 38.364L0 0.0112H7.41008L14.383 25.3448L21.3559 0.0112H26.8206L33.87 25.3448L40.8429 0.0112H48.2311L37.1597 38.364H31.1158L24.0664 13.2988L16.9623 38.364H11.0277H11.0386Z" fill="#132347"/>
<path d="M50.3842 7.01292V0.0447693H57.7505V7.02411H50.3842V7.01292ZM50.4607 38.364V10.9388H57.6959V38.364H50.4607Z" fill="#132347"/>
<path d="M72.9313 38.9009C71.0624 38.9009 69.27 38.5877 67.5541 37.9613C65.8382 37.335 64.3737 36.3395 63.1715 34.9862C61.9692 33.6328 61.2151 31.8768 60.9091 29.7181H67.4448C67.6853 30.6912 68.1006 31.4629 68.7017 32.0222C69.3028 32.5926 69.9804 32.9953 70.7345 33.2301C71.4996 33.465 72.2209 33.5881 72.9095 33.5881C74.3631 33.5881 75.5325 33.3532 76.4178 32.8834C77.3031 32.4137 77.7512 31.6978 77.7512 30.7247C77.7512 29.9865 77.4889 29.3938 76.9643 28.9464C76.4396 28.5101 75.5653 28.1634 74.3631 27.9397L69.6416 26.9331C67.27 26.4186 65.3683 25.5462 63.9256 24.3158C62.4829 23.0855 61.7506 21.3407 61.7397 19.0813C61.7179 17.4372 62.1441 15.9608 62.9966 14.6521C63.8491 13.3435 65.1169 12.3145 66.8109 11.5539C68.505 10.7934 70.5597 10.4131 72.9969 10.4131C76.2976 10.4131 78.9315 11.1513 80.9097 12.6389C82.8879 14.1265 83.8934 16.218 83.9262 18.9247H77.5982C77.4124 17.8622 76.8987 17.0457 76.0571 16.4753C75.2156 15.9048 74.1554 15.614 72.8767 15.614C71.598 15.614 70.505 15.8489 69.6635 16.3299C68.811 16.8108 68.3957 17.5378 68.3957 18.4997C68.3957 19.2267 68.7454 19.7972 69.434 20.211C70.1225 20.6248 71.1936 20.9828 72.6472 21.2847L76.997 22.2914C78.5053 22.6605 79.7184 23.175 80.6693 23.8125C81.6092 24.4612 82.3415 25.1659 82.8552 25.9265C83.3688 26.687 83.7295 27.4476 83.9262 28.2193C84.123 28.9911 84.2213 29.6846 84.2213 30.2997C84.2213 32.1229 83.7514 33.6775 82.8005 34.9526C81.8497 36.2389 80.5272 37.2119 78.8332 37.883C77.1391 38.5541 75.1719 38.8897 72.9204 38.8897L72.9313 38.9009Z" fill="#132347"/>
<path d="M99.7082 38.9009C97.0524 38.9009 94.7135 38.3304 92.7025 37.1896C90.6915 36.0487 89.1177 34.4381 88.0029 32.3465C86.8881 30.255 86.3198 27.8055 86.3198 24.9757C86.3198 22.146 86.8334 19.7636 87.8608 17.5602C88.8881 15.3568 90.3745 13.6119 92.309 12.3369C94.2435 11.0506 96.5824 10.4131 99.3366 10.4131C102.091 10.4131 104.353 11.0059 106.2 12.1803C108.047 13.3547 109.446 14.9877 110.397 17.0904C111.348 19.182 111.818 21.6091 111.818 24.3494V26.441H93.8063C93.8063 27.8391 94.0359 29.0582 94.484 30.0872C94.9321 31.1162 95.5878 31.9215 96.4403 32.4696C97.2928 33.0288 98.3311 33.3084 99.5333 33.3084C100.834 33.3084 101.96 33.0288 102.932 32.4584C103.905 31.888 104.583 30.9596 104.976 29.6734H111.796C111.49 31.6195 110.725 33.2861 109.512 34.6618C108.299 36.0375 106.834 37.0889 105.107 37.8159C103.38 38.5429 101.588 38.9009 99.7191 38.9009H99.7082ZM93.7954 21.8216H104.736C104.736 20.7255 104.528 19.7189 104.124 18.8017C103.719 17.8846 103.118 17.1575 102.309 16.6319C101.501 16.1062 100.495 15.8377 99.2929 15.8377C98.0906 15.8377 97.1507 16.1285 96.3201 16.699C95.5004 17.2694 94.8665 18.0188 94.4293 18.9359C93.9921 19.8531 93.7736 20.815 93.7954 21.8216Z" fill="#132347"/>
</svg>
