<svg width="159" height="56" viewBox="0 0 159 56" fill="none" xmlns="http://www.w3.org/2000/svg">
<g id="Primary Mark (Aurum)">
<path id="Vector" d="M124.726 35.9722H109.014L126.116 18.3301L109.014 0.679688H116.288C121.679 0.679688 126.844 2.86101 130.586 6.72412L141.828 18.3301L124.726 35.9722Z" fill="#00C08D"/>
<path id="Vector_2" d="M144.841 15.2663L158.98 0.679688H143.268L136.722 7.4318L144.841 15.2663Z" fill="white"/>
<path id="Vector_3" d="M136.655 29.1452L137.45 29.9694C141.167 33.8076 146.298 35.9722 151.655 35.9722H158.98L144.557 21.0859L136.655 29.1452Z" fill="white"/>
<path id="Vector_4" d="M10.5138 36.1804L0 0.696411H7.05665L13.6948 24.1332L20.3329 0.696411H25.5396L32.253 24.1332L38.8828 0.696411H45.9143L35.3754 36.1804H29.6246L22.9111 12.9851L16.1474 36.1804H10.4971H10.5138Z" fill="white"/>
<path id="Vector_5" d="M47.9648 7.17371V0.721313H54.9713V7.17371H47.9648ZM48.0402 36.1803V10.8037H54.921V36.1803H48.0402Z" fill="white"/>
<path id="Vector_6" d="M69.4284 36.6715C67.6538 36.6715 65.9461 36.3801 64.3054 35.7973C62.6647 35.2145 61.2752 34.2987 60.1367 33.0499C58.9899 31.801 58.27 30.1775 57.9771 28.1794H64.1966C64.4226 29.0785 64.8244 29.7945 65.3937 30.3107C65.9629 30.8352 66.6074 31.2099 67.3273 31.4264C68.0472 31.6512 68.742 31.7594 69.4033 31.7594C70.7845 31.7594 71.8978 31.5429 72.7433 31.11C73.5887 30.6771 74.0157 30.011 74.0157 29.1118C74.0157 28.4208 73.7645 27.8796 73.2623 27.4717C72.76 27.0637 71.9313 26.7557 70.7845 26.5392L66.2893 25.6067C64.0376 25.1322 62.2211 24.3246 60.8483 23.1923C59.4754 22.0517 58.7807 20.4365 58.7639 18.3467C58.7472 16.8231 59.149 15.4577 59.9609 14.2505C60.7729 13.0433 61.9867 12.0858 63.5855 11.3782C65.1844 10.6705 67.1515 10.3208 69.4703 10.3208C72.6094 10.3208 75.1206 11.0118 77.0041 12.3856C78.8875 13.7593 79.8418 15.6992 79.8753 18.2052H73.8566C73.6725 17.2228 73.1869 16.4651 72.3917 15.9323C71.5965 15.3995 70.5836 15.133 69.3698 15.133C68.156 15.133 67.1181 15.3578 66.3145 15.7991C65.5108 16.2404 65.109 16.9147 65.109 17.8139C65.109 18.4883 65.4355 19.0128 66.0968 19.3958C66.7581 19.7788 67.771 20.1118 69.1606 20.3865L73.3041 21.319C74.7356 21.6604 75.8991 22.1349 76.7948 22.7344C77.6905 23.3338 78.3853 23.9832 78.8791 24.6826C79.373 25.3819 79.7162 26.0979 79.9004 26.8056C80.0929 27.5133 80.185 28.1627 80.185 28.7288C80.185 30.4106 79.733 31.851 78.8289 33.0332C77.9249 34.2155 76.6692 35.123 75.0537 35.7474C73.4381 36.3718 71.563 36.6799 69.4284 36.6799V36.6715Z" fill="white"/>
<path id="Vector_7" d="M94.9174 36.6716C92.381 36.6716 90.1627 36.147 88.2458 35.0897C86.3289 34.0323 84.8388 32.542 83.7674 30.6105C82.6959 28.6789 82.1602 26.406 82.1602 23.7918C82.1602 21.1775 82.6457 18.9712 83.6251 16.9314C84.6045 14.8916 86.0108 13.2848 87.8524 12.0942C89.6939 10.9119 91.9206 10.3125 94.5407 10.3125C97.1608 10.3125 99.3205 10.8537 101.078 11.9443C102.836 13.035 104.167 14.5419 105.08 16.4818C105.984 18.4217 106.436 20.6613 106.436 23.1923V25.1322H89.2838C89.2838 26.4227 89.5014 27.5466 89.9283 28.5041C90.3552 29.4615 90.9747 30.1942 91.795 30.7104C92.607 31.2266 93.5948 31.4847 94.7416 31.4847C95.9721 31.4847 97.052 31.2266 97.9728 30.7021C98.8935 30.1775 99.5465 29.32 99.9232 28.1211H106.411C106.118 29.9194 105.389 31.4597 104.243 32.7335C103.087 34.0073 101.689 34.9814 100.049 35.6558C98.408 36.3302 96.692 36.6632 94.9174 36.6632V36.6716ZM89.2921 20.8694H99.7055C99.7055 19.8537 99.513 18.9212 99.1279 18.072C98.7429 17.2228 98.1653 16.5484 97.4035 16.0572C96.6418 15.566 95.6791 15.3246 94.5323 15.3246C93.3855 15.3246 92.4898 15.591 91.7113 16.1238C90.9328 16.6567 90.3301 17.3477 89.9116 18.1969C89.4931 19.0461 89.2921 19.937 89.3089 20.8694H89.2921Z" fill="white"/>
<path id="Vector_8" d="M89.7612 54.6217L88.4386 52.3904L88.2042 51.9908L86.9067 49.7928L86.6724 49.3932L86.438 49.7928L85.1405 51.9908L84.9061 52.3904L83.5835 54.6217L83.3491 55.0213H90.0123L89.778 54.6217H89.7612ZM86.664 50.1841L87.7355 51.9908H85.6009L86.664 50.1841ZM84.0355 54.6217L85.3581 52.3904H87.9698L89.2924 54.6217H84.0439H84.0355Z" fill="#D9B85A"/>
<path id="Vector_9" d="M84.345 48.8021L85.0984 47.5282L85.3328 47.1286L85.0984 46.729L84.6129 45.9047L84.3785 45.5051L83.8679 44.6476L83.6335 44.2479L83.3991 44.6476L80.9464 48.7937L80.712 49.1934L79.0462 52.0075H76.3424L82.0514 42.3497L82.2858 41.95L82.0514 41.5504L81.817 41.95L75.8737 51.9991L75.6393 52.3988L74.3418 54.5967L74.1074 54.9964H80.6869L80.9213 54.5967L84.1274 49.1767L84.3618 48.7771L84.345 48.8021ZM84.864 47.1286L83.8762 48.8021H82.8968L84.3701 46.3044L84.8556 47.1286H84.864ZM83.6335 45.0472L84.1441 45.9047L82.4365 48.7937H81.4236L83.6419 45.0389L83.6335 45.0472ZM80.4358 54.6217H74.7938L76.0913 52.4237H79.2723L79.5066 52.0241L81.1724 49.21H83.6335L80.4274 54.63L80.4358 54.6217Z" fill="#D9B85A"/>
<path id="Vector_10" d="M99.739 41.5837L93.938 55.0297H94.8086L100.074 42.7244L105.163 55.0297H106.042L100.417 41.5921L99.739 41.5837Z" fill="white"/>
<path id="Vector_11" d="M158.101 55.0296H158.98L153.355 41.6003H152.694L150.701 46.2128L148.776 41.6003H148.09L142.297 55.0296H143.167L148.424 42.7243L150.274 47.2035L146.901 55.0296H147.763L150.693 48.1943L153.522 55.0296H154.393L151.12 47.1952L153.02 42.7493L158.101 55.0296Z" fill="white"/>
<path id="Vector_12" d="M115.736 49.593C115.736 50.2008 115.669 50.8002 115.544 51.3913C115.418 51.9824 115.2 52.5153 114.899 52.9815C114.598 53.4478 114.196 53.8224 113.685 54.1055C113.175 54.3886 112.538 54.5301 111.768 54.5218C111.007 54.5218 110.379 54.3719 109.885 54.0888C109.383 53.8058 108.989 53.4311 108.688 52.9649C108.395 52.4986 108.186 51.9741 108.068 51.3747C107.951 50.7836 107.893 50.1675 107.893 49.543V41.6003H107.081V49.543C107.081 50.2674 107.148 50.9667 107.298 51.6411C107.449 52.3238 107.708 52.9316 108.068 53.4644C108.437 54.0056 108.922 54.4385 109.525 54.7632C110.128 55.0879 110.881 55.2544 111.777 55.2628C112.647 55.2628 113.392 55.1212 113.995 54.8132C114.598 54.5051 115.092 54.0972 115.468 53.5727C115.845 53.0481 116.121 52.4404 116.289 51.7577C116.456 51.0666 116.548 50.3506 116.548 49.593L116.573 41.6003H115.778L115.728 49.593H115.736Z" fill="white"/>
<path id="Vector_13" d="M140.757 49.593C140.757 50.2008 140.69 50.8002 140.564 51.3914C140.439 51.9825 140.221 52.5153 139.92 52.9816C139.618 53.4478 139.216 53.8224 138.706 54.1055C138.195 54.3886 137.484 54.5301 136.714 54.5218C135.952 54.5218 135.324 54.3719 134.83 54.0889C134.328 53.8058 133.934 53.4311 133.633 52.9649C133.34 52.4987 133.131 51.9742 133.014 51.3747C132.896 50.7836 132.838 50.1675 132.838 49.5431L132.888 41.6004H132.076L132.026 49.5347C132.026 50.2591 132.093 50.9584 132.244 51.6328C132.394 52.3155 132.654 52.9233 133.014 53.4561C133.382 53.9973 133.867 54.4302 134.47 54.7549C135.073 55.0796 135.826 55.2461 136.722 55.2545C137.593 55.2545 138.413 55.1129 139.016 54.8049C139.618 54.4968 140.112 54.0889 140.489 53.5644C140.866 53.0398 141.142 52.4321 141.309 51.7494C141.477 51.0583 141.569 50.3423 141.569 49.5847L141.619 41.592H140.799L140.748 49.5764L140.757 49.593Z" fill="white"/>
<path id="Vector_14" d="M127.79 50.0426C127.455 49.6596 127.053 49.3515 126.593 49.1018C128.175 48.494 128.945 46.5957 128.953 45.3053C128.953 44.1313 128.359 41.617 124.952 41.6003H119.151L119.168 55.0296H119.913L119.879 49.3432L124.885 49.3765C125.337 49.3765 125.764 49.4764 126.149 49.6846C126.542 49.8844 126.894 50.1591 127.187 50.4838C127.488 50.8169 127.714 51.1998 127.89 51.6328C128.066 52.0657 128.15 52.5153 128.141 52.9732L128.124 55.038H128.886L128.903 52.9815C128.903 52.4653 128.811 51.9325 128.61 51.4246C128.417 50.9168 128.141 50.4588 127.79 50.0509M125.019 48.6855H124.902L119.879 48.6522L119.913 42.2914L124.918 42.3247C127.254 42.3413 128.191 43.7067 128.183 45.3136C128.166 47.5199 126.492 48.6938 125.019 48.6855Z" fill="white"/>
<path id="Vector_15" d="M70.416 47.7697H6.11084V48.3358H70.416V47.7697Z" fill="white"/>
</g>
</svg>
